<svg xmlns="http://www.w3.org/2000/svg" viewBox="0 0 128 128"><defs><style>.cls-1{fill:#fff;}.cls-2{fill:#5f3e73;stroke:#5f3e73;stroke-miterlimit:10;}</style></defs><g id="Camada_2" data-name="Camada 2"><g id="Camada_1-2" data-name="Camada 1"><circle class="cls-1" cx="64" cy="64" r="64"/><path class="cls-2" d="M56,36H36V92H56Zm36,0H72V56H92Zm0,36V92H72V72ZM32,36a4,4,0,0,1,4-4H56a4,4,0,0,1,4,4V92a4,4,0,0,1-4,4H36a4,4,0,0,1-4-4Zm36,0a4,4,0,0,1,4-4H92a4,4,0,0,1,4,4V56a4,4,0,0,1-4,4H72a4,4,0,0,1-4-4Zm4,32a4,4,0,0,0-4,4V92a4,4,0,0,0,4,4H92a4,4,0,0,0,4-4V72a4,4,0,0,0-4-4Z"/></g></g></svg>