<svg xmlns="http://www.w3.org/2000/svg" viewBox="0 0 128 128"><defs><style>.cls-1{fill:#ab6cb1;}.cls-2{fill:#fff;}</style></defs><g id="Camada_2" data-name="Camada 2"><g id="Camada_1-2" data-name="Camada 1"><circle class="cls-1" cx="64" cy="64" r="64"/><path class="cls-2" d="M62,36.1,63.85,38l2-1.89a24.53,24.53,0,0,1,20.6-6.29C97.73,31.62,106,41,106,52v.91A23.15,23.15,0,0,1,98.21,70.2L68.55,96.78a6.88,6.88,0,0,1-9.1,0L29.79,70.2A23.15,23.15,0,0,1,22,52.94V52c0-11,8.29-20.41,19.6-22.22A24.22,24.22,0,0,1,62,36.1Zm1.82,12.59-7.38-7.38a16.4,16.4,0,0,0-13.6-4A15.15,15.15,0,0,0,29.86,52v.91a15.76,15.76,0,0,0,5.3,11.73L64,90.51,92.84,64.67a15.76,15.76,0,0,0,5.3-11.73V52a15.16,15.16,0,0,0-13-14.76,16.4,16.4,0,0,0-13.6,4Z"/></g></g></svg>