<svg xmlns="http://www.w3.org/2000/svg" viewBox="0 0 128 128"><defs><style>.cls-1{fill:#ab6cb1;}.cls-2,.cls-3{fill:#fff;}.cls-3{fill-rule:evenodd;}</style></defs><g id="Camada_2" data-name="Camada 2"><g id="Camada_1-2" data-name="Camada 1"><circle class="cls-1" cx="64" cy="64" r="64"/><path class="cls-2" d="M54.35,59A17.48,17.48,0,1,0,36.86,41.52,17.49,17.49,0,0,0,54.35,59ZM66,41.52A11.66,11.66,0,1,1,54.35,29.86,11.66,11.66,0,0,1,66,41.52ZM89.31,88.14C89.31,94,83.48,94,83.48,94H25.21s-5.83,0-5.83-5.82,5.83-23.31,35-23.31S89.31,82.31,89.31,88.14Zm-5.83,0c0-1.43-.89-5.74-4.85-9.69-3.8-3.8-10.95-7.77-24.28-7.77s-20.49,4-24.29,7.77c-3.95,4-4.84,8.26-4.85,9.69Z"/><path class="cls-3" d="M98.05,41.52A2.91,2.91,0,0,1,101,44.43v8.74h8.75a2.92,2.92,0,0,1,0,5.83H101v8.74a2.91,2.91,0,0,1-5.82,0V59H86.4a2.92,2.92,0,1,1,0-5.83h8.74V44.43A2.91,2.91,0,0,1,98.05,41.52Z"/></g></g></svg>