<svg xmlns="http://www.w3.org/2000/svg" viewBox="0 0 128 128"><defs><style>.cls-1{fill:#fff;}.cls-2,.cls-3{fill:#5f3e73;}.cls-3{fill-rule:evenodd;}</style></defs><g id="Camada_2" data-name="Camada 2"><g id="Camada_1-2" data-name="Camada 1"><circle class="cls-1" cx="64" cy="64" r="64"/><path class="cls-2" d="M58.33,62.15a16,16,0,1,0-16-16A16,16,0,0,0,58.33,62.15ZM69,46.15A10.67,10.67,0,1,1,58.33,35.49,10.67,10.67,0,0,1,69,46.15ZM90.33,88.82c0,5.33-5.33,5.33-5.33,5.33H31.66s-5.33,0-5.33-5.33,5.33-21.33,32-21.33S90.33,83.49,90.33,88.82ZM85,88.8a14.28,14.28,0,0,0-4.44-8.88c-3.48-3.47-10-7.1-22.23-7.1s-18.75,3.63-22.23,7.1a14.34,14.34,0,0,0-4.44,8.88Z"/><path class="cls-3" d="M110.89,46.93a2.67,2.67,0,0,1,0,3.77h0l-16,16a2.68,2.68,0,0,1-3.78,0h0l-8-8a2.67,2.67,0,0,1,3.78-3.78L93,61.05l14.11-14.12a2.67,2.67,0,0,1,3.77,0Z"/></g></g></svg>