<svg xmlns="http://www.w3.org/2000/svg" viewBox="0 0 128 128"><defs><style>.cls-1{fill:#fff;}.cls-2{fill:#5f3e73;stroke:#5f3e73;stroke-miterlimit:10;}</style></defs><g id="Camada_2" data-name="Camada 2"><g id="Camada_1-2" data-name="Camada 1"><circle class="cls-1" cx="64" cy="64" r="64"/><path class="cls-2" d="M64,92A28,28,0,1,1,92,64,28,28,0,0,1,64,92Zm0,4A32,32,0,1,0,32,64,32,32,0,0,0,64,96Z"/><path class="cls-2" d="M53,55.14a.94.94,0,0,0,.91,1h3.35a1.11,1.11,0,0,0,1.07-1,5,5,0,0,1,5.37-4.53C66.46,50.6,69,52,69,55.27c0,2.54-1.49,3.71-3.86,5.48-2.69,2-4.82,4.24-4.67,8v.87a1,1,0,0,0,1,1H64.7a1,1,0,0,0,1-1v-.42c0-2.87,1.09-3.71,4-5.94,2.43-1.85,5-3.91,5-8.23,0-6-5.1-9-10.69-9C59,46,53.4,48.36,53,55.14ZM59.25,78.2a3.76,3.76,0,0,0,4,3.7c2.43,0,4.11-1.57,4.11-3.7s-1.68-3.76-4.12-3.76A3.76,3.76,0,0,0,59.25,78.2Z"/></g></g></svg>