<svg xmlns="http://www.w3.org/2000/svg" viewBox="0 0 128 128"><defs><style>.cls-1{fill:#fff;}.cls-2{fill:none;stroke:#5f3e73;stroke-miterlimit:10;stroke-width:4px;}</style></defs><g id="Camada_2" data-name="Camada 2"><g id="Camada_1-2" data-name="Camada 1"><circle class="cls-1" cx="64" cy="64" r="64"/><rect class="cls-2" x="28.04" y="29.82" width="71.93" height="52.24" rx="3.07"/><line class="cls-2" x1="28.04" y1="72.12" x2="99.96" y2="72.12"/><path class="cls-2" d="M50.42,94.18A10.14,10.14,0,0,0,55.8,82"/><path class="cls-2" d="M79,94.18A10.14,10.14,0,0,1,73.57,82"/><line class="cls-2" x1="41.97" y1="94.18" x2="86.03" y2="94.18"/><path class="cls-2" d="M59.17,60.45V42.73a.41.41,0,0,1,.62-.34l13.93,8.85a.41.41,0,0,1,.14.57.44.44,0,0,1-.14.13L59.79,60.78a.39.39,0,0,1-.55-.09A.4.4,0,0,1,59.17,60.45Z"/></g></g></svg>